<svg version="1.2" xmlns="http://www.w3.org/2000/svg" viewBox="0 0 125 444" width="125" height="444">
	<title>&lt;Group&gt;</title>
	<defs>
		<linearGradient id="g1" x1="-139.2" y1="324.5" x2="-55.5" y2="205" gradientUnits="userSpaceOnUse">
			<stop offset="0" stop-color="#fefefe"/>
			<stop offset="1" stop-color="#f49354"/>
		</linearGradient>
		<linearGradient id="g2" x1="27.3" y1="285.9" x2="97.4" y2="285.9" gradientUnits="userSpaceOnUse">
			<stop offset="0" stop-color="#46429b"/>
			<stop offset="1" stop-color="#100735"/>
		</linearGradient>
		<linearGradient id="g3" x1="18.9" y1=".2" x2="124.9" y2=".2" gradientUnits="userSpaceOnUse">
			<stop offset="0" stop-color="#8d489d"/>
			<stop offset="1" stop-color="#6ac0eb"/>
		</linearGradient>
		<linearGradient id="g4" x1="17.6" y1="66.8" x2="21.6" y2="-1.1" gradientUnits="userSpaceOnUse">
			<stop offset="0" stop-color="#753e99"/>
			<stop offset="1" stop-color="#1f1561"/>
		</linearGradient>
		<linearGradient id="g5" x1="121.6" y1="176.7" x2="89.9" y2="239.5" gradientUnits="userSpaceOnUse">
			<stop offset="0" stop-color="#753e99"/>
			<stop offset="1" stop-color="#1f1561"/>
		</linearGradient>
		<linearGradient id="g6" x1="78.2" y1="225.4" x2="22.4" y2="225.4" gradientUnits="userSpaceOnUse">
			<stop offset="0" stop-color="#753e99"/>
			<stop offset="1" stop-color="#1f1561"/>
		</linearGradient>
		<linearGradient id="g7" x1="95.2" y1="184.6" x2="67.9" y2="236.7" gradientUnits="userSpaceOnUse">
			<stop offset="0" stop-color="#7864ac"/>
			<stop offset="1" stop-color="#1f9dba"/>
		</linearGradient>
		<linearGradient id="g8" x1="89.2" y1="237.3" x2="117" y2="237.3" gradientUnits="userSpaceOnUse">
			<stop offset="0" stop-color="#46429b"/>
			<stop offset="1" stop-color="#100735"/>
		</linearGradient>
		<linearGradient id="g9" x1="-164.2" y1="146.1" x2="-139.5" y2="109.7" gradientUnits="userSpaceOnUse">
			<stop offset="0" stop-color="#46429b"/>
			<stop offset="1" stop-color="#100735"/>
		</linearGradient>
		<linearGradient id="g10" x1="56.3" y1="265.9" x2="74.8" y2="217.2" gradientUnits="userSpaceOnUse">
			<stop offset="0" stop-color="#46429b"/>
			<stop offset="1" stop-color="#100735"/>
		</linearGradient>
		<linearGradient id="g11" x1="32.9" y1="340.1" x2="5.2" y2="340.1" gradientUnits="userSpaceOnUse">
			<stop offset="0" stop-color="#46429b"/>
			<stop offset="1" stop-color="#100735"/>
		</linearGradient>
		<linearGradient id="g12" x1="286.2" y1="472.6" x2="261.6" y2="509" gradientUnits="userSpaceOnUse">
			<stop offset="0" stop-color="#46429b"/>
			<stop offset="1" stop-color="#100735"/>
		</linearGradient>
		<linearGradient id="g13" x1="65.8" y1="249.6" x2="47.3" y2="298.2" gradientUnits="userSpaceOnUse">
			<stop offset="0" stop-color="#46429b"/>
			<stop offset="1" stop-color="#100735"/>
		</linearGradient>
	</defs>
	<style>
		.s0 { fill: url(#g1) } 
		.s1 { fill: url(#g2) } 
		.s2 { fill: url(#g3) } 
		.s3 { fill: url(#g4) } 
		.s4 { fill: url(#g5) } 
		.s5 { fill: url(#g6) } 
		.s6 { fill: url(#g7) } 
		.s7 { fill: url(#g8) } 
		.s8 { fill: url(#g9) } 
		.s9 { fill: url(#g10) } 
		.s10 { fill: url(#g11) } 
		.s11 { fill: url(#g12) } 
		.s12 { fill: url(#g13) } 
	</style>
	<g id="&lt;Group&gt;">
		<path id="&lt;Path&gt;" class="s0" d="m85.3 444l-53.9-37.9v-102.5h53.9z"/>
		<g id="&lt;Group&gt;">
			<path id="&lt;Path&gt;" class="s1" d="m97.4 296.8c-3.7 10.9-7.9 19-12.3 21.9 0 0-17.8 3.8-31.7 0.5-13.8-3.3-22.7-14.8-22.7-14.8-1.2-4.3-2.7-14.7-3.4-18.5z"/>
			<path id="&lt;Path&gt;" class="s2" d="m124.9 171.6c0 49.6-15.7 123.1-32.7 134.7 0 0-20.6 8.6-37.9 3.5-14.4-4.3-26-19.2-26-19.2-10.3-26-10-109.8-8.8-129.5 4.8-82.1 52.8-167.9 62.8-160.5 15.3 11.5 42.6 91.3 42.6 171z"/>
			<path id="&lt;Path&gt;" class="s3" d="m47.5 50.6c14.3-32.7 29.7-53.8 34.9-50 8.4 6.3 20.3 33.1 29.4 69.1-40.6 13.3-57.9-7-64.3-19.1z"/>
			<g id="&lt;Group&gt;">
				<path id="&lt;Path&gt;" class="s4" d="m78.8 216.5q-0.1 0-0.2 0.1l-8.2 5c10.3-7.9 10.5-26.2 0.2-41.5-10.5-15.7-28-22.5-39.2-15.3l7.9-4.9q0.5-0.4 1.1-0.7c11.2-7.5 28.8-0.8 39.4 15.1 10.6 15.8 10.2 34.7-1 42.2z"/>
				<path id="&lt;Path&gt;" class="s5" d="m70.6 180.1c10.6 15.8 10.1 34.7-1.1 42.2-11.2 7.5-28.8 0.7-39.4-15.1-10.6-15.8-10.2-34.7 1-42.2 11.2-7.5 28.9-0.8 39.5 15.1z"/>
				<path id="&lt;Path&gt;" class="s6" d="m64.7 183.8c7.8 11.7 7.5 25.6-0.8 31.1-8.2 5.6-21.2 0.6-29.1-11.1-7.8-11.7-7.4-25.6 0.8-31.1 8.3-5.5 21.3-0.6 29.1 11.1z"/>
			</g>
		</g>
		<g id="&lt;Group&gt;">
			<g id="&lt;Group&gt;">
				<path id="&lt;Path&gt;" class="s7" d="m117 340.6l-27.8-45.3v-58l27.8 45.3z"/>
				<path id="&lt;Path&gt;" class="s8" d="m117 282.6l5.1-4v58l-5.1 4z"/>
				<path id="&lt;Path&gt;" class="s9" d="m122.1 278.6l-5.1 4-27.8-45.3 5.2-4z"/>
			</g>
			<g id="&lt;Group&gt;">
				<path id="&lt;Path&gt;" class="s10" d="m5.2 282.1l27.7-45.3v58l-27.7 45.3z"/>
				<path id="&lt;Path&gt;" class="s11" d="m5.2 340.1l-5.2-4v-57.9l5.2 3.9z"/>
				<path id="&lt;Path&gt;" class="s12" d="m27.8 232.8l5.1 4-27.7 45.3-5.2-3.9z"/>
			</g>
		</g>
	</g>
</svg>