<svg version="1.2" xmlns="http://www.w3.org/2000/svg" viewBox="0 0 383 394" width="383" height="394">
	<title>&lt;Group&gt;</title>
	<defs>
		<linearGradient id="g1" x1="106.9" y1="165.2" x2="286.9" y2="165.2" gradientUnits="userSpaceOnUse">
			<stop offset="0" stop-color="#8d489d"/>
			<stop offset="1" stop-color="#6ac0eb"/>
		</linearGradient>
		<linearGradient id="g2" x1="264.5" y1="290.3" x2="276.5" y2="272.5" gradientUnits="userSpaceOnUse">
			<stop offset="0" stop-color="#8d489d"/>
			<stop offset="1" stop-color="#6ac0eb"/>
		</linearGradient>
		<linearGradient id="g3" x1="108.6" y1="278.5" x2="170.9" y2="114.3" gradientUnits="userSpaceOnUse">
			<stop offset="0" stop-color="#8d489d"/>
			<stop offset="1" stop-color="#6ac0eb"/>
		</linearGradient>
		<linearGradient id="g4" x1="136.8" y1="108.5" x2="214.4" y2="108.5" gradientUnits="userSpaceOnUse">
			<stop offset="0" stop-color="#8d489d"/>
			<stop offset="1" stop-color="#6ac0eb"/>
		</linearGradient>
		<linearGradient id="g5" x1="-337.3" y1="-31.5" x2="-244.3" y2="-168.9" gradientUnits="userSpaceOnUse">
			<stop offset="0" stop-color="#8d489d"/>
			<stop offset="1" stop-color="#6ac0eb"/>
		</linearGradient>
		<linearGradient id="g6" x1="137.7" y1="154" x2="174.7" y2="56.5" gradientUnits="userSpaceOnUse">
			<stop offset="0" stop-color="#8d489d"/>
			<stop offset="1" stop-color="#6ac0eb"/>
		</linearGradient>
		<linearGradient id="g7" x1="223.1" y1="246.9" x2="286.9" y2="246.9" gradientUnits="userSpaceOnUse">
			<stop offset="0" stop-color="#8d489d"/>
			<stop offset="1" stop-color="#6ac0eb"/>
		</linearGradient>
		<linearGradient id="g8" x1="264.5" y1="290.3" x2="276.5" y2="272.5" gradientUnits="userSpaceOnUse">
			<stop offset="0" stop-color="#8d489d"/>
			<stop offset="1" stop-color="#6ac0eb"/>
		</linearGradient>
		<linearGradient id="g9" x1="223.3" y1="286.6" x2="248" y2="221.5" gradientUnits="userSpaceOnUse">
			<stop offset="0" stop-color="#8d489d"/>
			<stop offset="1" stop-color="#6ac0eb"/>
		</linearGradient>
		<linearGradient id="g10" x1="258.6" y1="240.7" x2="370.9" y2="240.7" gradientUnits="userSpaceOnUse">
			<stop offset="0" stop-color="#8d489d"/>
			<stop offset="1" stop-color="#6ac0eb"/>
		</linearGradient>
		<linearGradient id="g11" x1="135.4" y1="228.4" x2="170.1" y2="177.2" gradientUnits="userSpaceOnUse">
			<stop offset="0" stop-color="#8d489d"/>
			<stop offset="1" stop-color="#6ac0eb"/>
		</linearGradient>
		<linearGradient id="g12" x1="261.1" y1="310" x2="301" y2="205" gradientUnits="userSpaceOnUse">
			<stop offset="0" stop-color="#8d489d"/>
			<stop offset="1" stop-color="#6ac0eb"/>
		</linearGradient>
		<linearGradient id="g13" x1="263.2" y1="249" x2="284.1" y2="249" gradientUnits="userSpaceOnUse">
			<stop offset="0" stop-color="#2dc0bf"/>
			<stop offset="1" stop-color="#aad58c"/>
		</linearGradient>
		<linearGradient id="g14" x1="289.8" y1="267.2" x2="310.7" y2="267.2" gradientUnits="userSpaceOnUse">
			<stop offset="0" stop-color="#2dc0bf"/>
			<stop offset="1" stop-color="#aad58c"/>
		</linearGradient>
		<linearGradient id="g15" x1="316.4" y1="285.4" x2="337.4" y2="285.4" gradientUnits="userSpaceOnUse">
			<stop offset="0" stop-color="#2dc0bf"/>
			<stop offset="1" stop-color="#aad58c"/>
		</linearGradient>
		<linearGradient id="g16" x1="343" y1="303.6" x2="364" y2="303.6" gradientUnits="userSpaceOnUse">
			<stop offset="0" stop-color="#2dc0bf"/>
			<stop offset="1" stop-color="#aad58c"/>
		</linearGradient>
		<linearGradient id="g17" x1="263.2" y1="286" x2="284.1" y2="286" gradientUnits="userSpaceOnUse">
			<stop offset="0" stop-color="#2dc0bf"/>
			<stop offset="1" stop-color="#aad58c"/>
		</linearGradient>
		<linearGradient id="g18" x1="289.8" y1="304.2" x2="310.7" y2="304.2" gradientUnits="userSpaceOnUse">
			<stop offset="0" stop-color="#2dc0bf"/>
			<stop offset="1" stop-color="#aad58c"/>
		</linearGradient>
		<linearGradient id="g19" x1="316.4" y1="322.4" x2="337.4" y2="322.4" gradientUnits="userSpaceOnUse">
			<stop offset="0" stop-color="#2dc0bf"/>
			<stop offset="1" stop-color="#aad58c"/>
		</linearGradient>
		<linearGradient id="g20" x1="343" y1="340.6" x2="364" y2="340.6" gradientUnits="userSpaceOnUse">
			<stop offset="0" stop-color="#2dc0bf"/>
			<stop offset="1" stop-color="#aad58c"/>
		</linearGradient>
		<linearGradient id="g21" x1=".8" y1="73.6" x2="113.1" y2="73.6" gradientUnits="userSpaceOnUse">
			<stop offset="0" stop-color="#8d489d"/>
			<stop offset="1" stop-color="#6ac0eb"/>
		</linearGradient>
		<linearGradient id="g22" x1="-122.5" y1="61.3" x2="-87.8" y2="10.1" gradientUnits="userSpaceOnUse">
			<stop offset="0" stop-color="#8d489d"/>
			<stop offset="1" stop-color="#6ac0eb"/>
		</linearGradient>
		<linearGradient id="g23" x1="3.3" y1="143" x2="43.1" y2="37.9" gradientUnits="userSpaceOnUse">
			<stop offset="0" stop-color="#8d489d"/>
			<stop offset="1" stop-color="#6ac0eb"/>
		</linearGradient>
		<linearGradient id="g24" x1="5.4" y1="81.9" x2="26.3" y2="81.9" gradientUnits="userSpaceOnUse">
			<stop offset="0" stop-color="#2dc0bf"/>
			<stop offset="1" stop-color="#aad58c"/>
		</linearGradient>
		<linearGradient id="g25" x1="32" y1="100.1" x2="52.9" y2="100.1" gradientUnits="userSpaceOnUse">
			<stop offset="0" stop-color="#2dc0bf"/>
			<stop offset="1" stop-color="#aad58c"/>
		</linearGradient>
		<linearGradient id="g26" x1="58.6" y1="118.3" x2="79.5" y2="118.3" gradientUnits="userSpaceOnUse">
			<stop offset="0" stop-color="#2dc0bf"/>
			<stop offset="1" stop-color="#aad58c"/>
		</linearGradient>
		<linearGradient id="g27" x1="85.2" y1="136.6" x2="106.1" y2="136.6" gradientUnits="userSpaceOnUse">
			<stop offset="0" stop-color="#2dc0bf"/>
			<stop offset="1" stop-color="#aad58c"/>
		</linearGradient>
		<linearGradient id="g28" x1="5.4" y1="118.9" x2="26.3" y2="118.9" gradientUnits="userSpaceOnUse">
			<stop offset="0" stop-color="#2dc0bf"/>
			<stop offset="1" stop-color="#aad58c"/>
		</linearGradient>
		<linearGradient id="g29" x1="32" y1="137.1" x2="52.9" y2="137.1" gradientUnits="userSpaceOnUse">
			<stop offset="0" stop-color="#2dc0bf"/>
			<stop offset="1" stop-color="#aad58c"/>
		</linearGradient>
		<linearGradient id="g30" x1="58.6" y1="155.3" x2="79.5" y2="155.3" gradientUnits="userSpaceOnUse">
			<stop offset="0" stop-color="#2dc0bf"/>
			<stop offset="1" stop-color="#aad58c"/>
		</linearGradient>
		<linearGradient id="g31" x1="85.2" y1="173.5" x2="106.1" y2="173.5" gradientUnits="userSpaceOnUse">
			<stop offset="0" stop-color="#2dc0bf"/>
			<stop offset="1" stop-color="#aad58c"/>
		</linearGradient>
		<linearGradient id="g32" x1="137.7" y1="73.1" x2="174.7" y2="-24.4" gradientUnits="userSpaceOnUse">
			<stop offset="0" stop-color="#2dc0bf"/>
			<stop offset="1" stop-color="#aad58c"/>
		</linearGradient>
		<linearGradient id="g33" x1="145.7" y1="93.3" x2="189.5" y2="28.6" gradientUnits="userSpaceOnUse">
			<stop offset="0" stop-color="#2dc0bf"/>
			<stop offset="1" stop-color="#aad58c"/>
		</linearGradient>
		<linearGradient id="g34" x1="136.6" y1="27.6" x2="214.4" y2="27.6" gradientUnits="userSpaceOnUse">
			<stop offset="0" stop-color="#2dc0bf"/>
			<stop offset="1" stop-color="#aad58c"/>
		</linearGradient>
		<linearGradient id="g35" x1="186.2" y1="14.8" x2="194" y2="14.8" gradientUnits="userSpaceOnUse">
			<stop offset="0" stop-color="#8d489d"/>
			<stop offset="1" stop-color="#6ac0eb"/>
		</linearGradient>
		<linearGradient id="g36" x1="86.5" y1="-16.9" x2="104.8" y2="-44" gradientUnits="userSpaceOnUse">
			<stop offset="0" stop-color="#8d489d"/>
			<stop offset="1" stop-color="#6ac0eb"/>
		</linearGradient>
		<linearGradient id="g37" x1="186.5" y1="19.2" x2="191.3" y2="6.5" gradientUnits="userSpaceOnUse">
			<stop offset="0" stop-color="#2dc0bf"/>
			<stop offset="1" stop-color="#aad58c"/>
		</linearGradient>
		<linearGradient id="g38" x1="208" y1="-5.9" x2="216.3" y2="30" gradientUnits="userSpaceOnUse">
			<stop offset="0" stop-color="#8d489d"/>
			<stop offset="1" stop-color="#6ac0eb"/>
		</linearGradient>
		<linearGradient id="g39" x1="207.8" y1="-5.4" x2="215.8" y2="29.3" gradientUnits="userSpaceOnUse">
			<stop offset="0" stop-color="#8d489d"/>
			<stop offset="1" stop-color="#6ac0eb"/>
		</linearGradient>
		<linearGradient id="g40" x1="207.5" y1="-4.9" x2="215.2" y2="28.6" gradientUnits="userSpaceOnUse">
			<stop offset="0" stop-color="#8d489d"/>
			<stop offset="1" stop-color="#6ac0eb"/>
		</linearGradient>
		<linearGradient id="g41" x1="207.2" y1="-4.4" x2="214.7" y2="27.9" gradientUnits="userSpaceOnUse">
			<stop offset="0" stop-color="#8d489d"/>
			<stop offset="1" stop-color="#6ac0eb"/>
		</linearGradient>
		<linearGradient id="g42" x1="207" y1="-3.9" x2="214.1" y2="27.1" gradientUnits="userSpaceOnUse">
			<stop offset="0" stop-color="#8d489d"/>
			<stop offset="1" stop-color="#6ac0eb"/>
		</linearGradient>
		<linearGradient id="g43" x1="206.7" y1="-3.4" x2="213.6" y2="26.4" gradientUnits="userSpaceOnUse">
			<stop offset="0" stop-color="#8d489d"/>
			<stop offset="1" stop-color="#6ac0eb"/>
		</linearGradient>
		<linearGradient id="g44" x1="206.4" y1="-3" x2="213" y2="25.7" gradientUnits="userSpaceOnUse">
			<stop offset="0" stop-color="#8d489d"/>
			<stop offset="1" stop-color="#6ac0eb"/>
		</linearGradient>
		<linearGradient id="g45" x1="206.1" y1="-2.5" x2="212.5" y2="25" gradientUnits="userSpaceOnUse">
			<stop offset="0" stop-color="#8d489d"/>
			<stop offset="1" stop-color="#6ac0eb"/>
		</linearGradient>
		<linearGradient id="g46" x1="205.9" y1="-2" x2="211.9" y2="24.2" gradientUnits="userSpaceOnUse">
			<stop offset="0" stop-color="#8d489d"/>
			<stop offset="1" stop-color="#6ac0eb"/>
		</linearGradient>
		<linearGradient id="g47" x1="205.6" y1="-1.5" x2="211.4" y2="23.5" gradientUnits="userSpaceOnUse">
			<stop offset="0" stop-color="#8d489d"/>
			<stop offset="1" stop-color="#6ac0eb"/>
		</linearGradient>
		<linearGradient id="g48" x1="205.3" y1="-1" x2="210.8" y2="22.8" gradientUnits="userSpaceOnUse">
			<stop offset="0" stop-color="#8d489d"/>
			<stop offset="1" stop-color="#6ac0eb"/>
		</linearGradient>
		<linearGradient id="g49" x1="205" y1="-0.5" x2="210.3" y2="22.1" gradientUnits="userSpaceOnUse">
			<stop offset="0" stop-color="#8d489d"/>
			<stop offset="1" stop-color="#6ac0eb"/>
		</linearGradient>
		<linearGradient id="g50" x1="204.8" y1="0" x2="209.7" y2="21.3" gradientUnits="userSpaceOnUse">
			<stop offset="0" stop-color="#8d489d"/>
			<stop offset="1" stop-color="#6ac0eb"/>
		</linearGradient>
		<linearGradient id="g51" x1="204.5" y1=".4" x2="209.1" y2="20.6" gradientUnits="userSpaceOnUse">
			<stop offset="0" stop-color="#8d489d"/>
			<stop offset="1" stop-color="#6ac0eb"/>
		</linearGradient>
		<linearGradient id="g52" x1="204.2" y1=".9" x2="208.6" y2="19.9" gradientUnits="userSpaceOnUse">
			<stop offset="0" stop-color="#8d489d"/>
			<stop offset="1" stop-color="#6ac0eb"/>
		</linearGradient>
		<linearGradient id="g53" x1="203.9" y1="1.4" x2="208" y2="19.2" gradientUnits="userSpaceOnUse">
			<stop offset="0" stop-color="#8d489d"/>
			<stop offset="1" stop-color="#6ac0eb"/>
		</linearGradient>
		<linearGradient id="g54" x1="203.7" y1="1.9" x2="207.5" y2="18.4" gradientUnits="userSpaceOnUse">
			<stop offset="0" stop-color="#8d489d"/>
			<stop offset="1" stop-color="#6ac0eb"/>
		</linearGradient>
		<linearGradient id="g55" x1="203.4" y1="2.4" x2="206.9" y2="17.7" gradientUnits="userSpaceOnUse">
			<stop offset="0" stop-color="#8d489d"/>
			<stop offset="1" stop-color="#6ac0eb"/>
		</linearGradient>
		<linearGradient id="g56" x1="203.1" y1="2.9" x2="206.4" y2="17" gradientUnits="userSpaceOnUse">
			<stop offset="0" stop-color="#8d489d"/>
			<stop offset="1" stop-color="#6ac0eb"/>
		</linearGradient>
		<linearGradient id="g57" x1="202.8" y1="3.3" x2="205.8" y2="16.3" gradientUnits="userSpaceOnUse">
			<stop offset="0" stop-color="#8d489d"/>
			<stop offset="1" stop-color="#6ac0eb"/>
		</linearGradient>
		<linearGradient id="g58" x1="202.6" y1="3.8" x2="205.3" y2="15.5" gradientUnits="userSpaceOnUse">
			<stop offset="0" stop-color="#8d489d"/>
			<stop offset="1" stop-color="#6ac0eb"/>
		</linearGradient>
		<linearGradient id="g59" x1="202.3" y1="4.3" x2="204.7" y2="14.8" gradientUnits="userSpaceOnUse">
			<stop offset="0" stop-color="#8d489d"/>
			<stop offset="1" stop-color="#6ac0eb"/>
		</linearGradient>
	</defs>
	<style>
		.s0 { fill: url(#g1) } 
		.s1 { fill: url(#g2) } 
		.s2 { fill: url(#g3) } 
		.s3 { fill: url(#g4) } 
		.s4 { fill: url(#g5) } 
		.s5 { fill: url(#g6) } 
		.s6 { fill: url(#g7) } 
		.s7 { fill: url(#g8) } 
		.s8 { fill: url(#g9) } 
		.s9 { fill: url(#g10) } 
		.s10 { fill: url(#g11) } 
		.s11 { fill: url(#g12) } 
		.s12 { fill: url(#g13) } 
		.s13 { fill: url(#g14) } 
		.s14 { fill: url(#g15) } 
		.s15 { fill: url(#g16) } 
		.s16 { fill: url(#g17) } 
		.s17 { fill: url(#g18) } 
		.s18 { fill: url(#g19) } 
		.s19 { fill: url(#g20) } 
		.s20 { fill: url(#g21) } 
		.s21 { fill: url(#g22) } 
		.s22 { fill: url(#g23) } 
		.s23 { fill: url(#g24) } 
		.s24 { fill: url(#g25) } 
		.s25 { fill: url(#g26) } 
		.s26 { fill: url(#g27) } 
		.s27 { fill: url(#g28) } 
		.s28 { fill: url(#g29) } 
		.s29 { fill: url(#g30) } 
		.s30 { fill: url(#g31) } 
		.s31 { fill: url(#g32) } 
		.s32 { fill: url(#g33) } 
		.s33 { fill: url(#g34) } 
		.s34 { fill: url(#g35) } 
		.s35 { fill: url(#g36) } 
		.s36 { fill: url(#g37) } 
		.s37 { fill: url(#g38) } 
		.s38 { fill: url(#g39) } 
		.s39 { fill: url(#g40) } 
		.s40 { fill: url(#g41) } 
		.s41 { fill: url(#g42) } 
		.s42 { fill: url(#g43) } 
		.s43 { fill: url(#g44) } 
		.s44 { fill: url(#g45) } 
		.s45 { fill: url(#g46) } 
		.s46 { fill: url(#g47) } 
		.s47 { fill: url(#g48) } 
		.s48 { fill: url(#g49) } 
		.s49 { fill: url(#g50) } 
		.s50 { fill: url(#g51) } 
		.s51 { fill: url(#g52) } 
		.s52 { fill: url(#g53) } 
		.s53 { fill: url(#g54) } 
		.s54 { fill: url(#g55) } 
		.s55 { fill: url(#g56) } 
		.s56 { fill: url(#g57) } 
		.s57 { fill: url(#g58) } 
		.s58 { fill: url(#g59) } 
	</style>
	<g id="&lt;Group&gt;">
		<g id="&lt;Group&gt;">
			<path id="&lt;Path&gt;" class="s0" d="m286.9 307.5l-180-127.1v-15.2l180 127.1z"/>
			<path id="&lt;Path&gt;" class="s1" d="m286.9 292.3l11.9-8.7v15.2l-11.9 8.7z"/>
			<path id="&lt;Path&gt;" class="s2" d="m298.8 283.6l-11.9 8.7-180-127.1 11.9-8.7z"/>
		</g>
		<g id="&lt;Group&gt;">
			<path id="&lt;Path&gt;" class="s3" d="m214.4 357.8l-77.6-53.7v-195.6l77.6 53.7z"/>
			<path id="&lt;Path&gt;" class="s4" d="m214.4 162.2l36.3-27v195.7l-36.3 26.9z"/>
			<path id="&lt;Path&gt;" class="s5" d="m250.7 135.2l-36.3 27-77.6-53.7 36.2-27z"/>
		</g>
		<g id="&lt;Group&gt;">
			<path id="&lt;Path&gt;" class="s6" d="m286.9 307.5l-63.8-45.4v-15.2l63.8 45.4z"/>
			<path id="&lt;Path&gt;" class="s7" d="m286.9 292.3l11.9-8.7v15.2l-11.9 8.7z"/>
			<path id="&lt;Path&gt;" class="s8" d="m298.8 283.6l-11.9 8.7-63.8-45.4 11.9-8.6z"/>
		</g>
		<g id="&lt;Group&gt;">
			<g id="&lt;Group&gt;">
				<path id="&lt;Path&gt;" class="s9" d="m370.9 393.7l-112.3-77.7v-75.3l112.3 77.6z"/>
				<path id="&lt;Path&gt;" class="s10" d="m370.9 318.3l11.9-8.6v75.3l-11.9 8.7z"/>
				<path id="&lt;Path&gt;" class="s11" d="m382.8 309.7l-11.9 8.6-112.3-77.6 12-8.7z"/>
			</g>
			<g id="&lt;Group&gt;">
				<g id="&lt;Group&gt;">
					<path id="&lt;Path&gt;" class="s12" d="m284.1 293.4l-20.9-13.9v-30.5l20.9 13.9z"/>
					<path id="&lt;Path&gt;" class="s13" d="m310.7 311.6l-20.9-13.9v-30.5l20.9 14z"/>
					<path id="&lt;Path&gt;" class="s14" d="m337.4 329.9l-21-14v-30.5l21 14z"/>
					<path id="&lt;Path&gt;" class="s15" d="m364 348.1l-21-14v-30.5l21 14z"/>
				</g>
				<g id="&lt;Group&gt;">
					<path id="&lt;Path&gt;" class="s16" d="m284.1 330.4l-20.9-14v-30.4l20.9 13.9z"/>
					<path id="&lt;Path&gt;" class="s17" d="m310.7 348.6l-20.9-13.9v-30.5l20.9 13.9z"/>
					<path id="&lt;Path&gt;" class="s18" d="m337.4 366.8l-21-13.9v-30.5l21 13.9z"/>
					<path id="&lt;Path&gt;" class="s19" d="m364 385l-21-13.9v-30.5l21 13.9z"/>
				</g>
			</g>
		</g>
		<g id="&lt;Group&gt;">
			<g id="&lt;Group&gt;">
				<path id="&lt;Path&gt;" class="s20" d="m113.1 226.6l-112.3-77.6v-75.4l112.3 77.6z"/>
				<path id="&lt;Path&gt;" class="s21" d="m113.1 151.2l11.9-8.6v75.4l-11.9 8.6z"/>
				<path id="&lt;Path&gt;" class="s22" d="m125 142.6l-11.9 8.7-112.3-77.7 11.9-8.6z"/>
			</g>
			<g id="&lt;Group&gt;">
				<g id="&lt;Group&gt;">
					<path id="&lt;Path&gt;" class="s23" d="m26.3 126.4l-20.9-14v-30.5l20.9 14z"/>
					<path id="&lt;Path&gt;" class="s24" d="m52.9 144.6l-20.9-14v-30.5l20.9 14z"/>
					<path id="&lt;Path&gt;" class="s25" d="m79.5 162.8l-20.9-14v-30.5l20.9 14z"/>
					<path id="&lt;Path&gt;" class="s26" d="m106.1 181l-20.9-14v-30.4l20.9 13.9z"/>
				</g>
				<g id="&lt;Group&gt;">
					<path id="&lt;Path&gt;" class="s27" d="m26.3 163.3l-20.9-13.9v-30.5l20.9 14z"/>
					<path id="&lt;Path&gt;" class="s28" d="m52.9 181.6l-20.9-14v-30.5l20.9 14z"/>
					<path id="&lt;Path&gt;" class="s29" d="m79.5 199.8l-20.9-14v-30.5l20.9 14z"/>
					<path id="&lt;Path&gt;" class="s30" d="m106.1 218l-20.9-14v-30.5l20.9 14z"/>
				</g>
			</g>
		</g>
		<g id="&lt;Group&gt;">
			<path id="&lt;Path&gt;" class="s31" d="m250.7 54.4l-36.3 26.9-77.6-53.7 36.2-27z"/>
			<path id="&lt;Path&gt;" class="s32" d="m250.7 54.4c0 0 0 18.4 0 23.9 0 29.6-14.7 43.6-29.5 48.8-11.4 4-23.5 2.4-32.5 0 18.9 2.1 25.7-19 25.7-29.9 0-4 0-15.9 0-15.9z"/>
			<path id="&lt;Path&gt;" class="s33" d="m169.3 118.7c-36.4-25.1-32.5-53.6-32.5-73.4 0-5.6 0-17.7 0-17.7l77.6 53.7c0 0 0 11.9 0 15.9 0 14-11.1 44.9-45.1 21.5z"/>
		</g>
		<g id="&lt;Group&gt;">
			<g id="&lt;Group&gt;">
				<path id="&lt;Path&gt;" class="s34" d="m194 58.9l-7.8-5.4v-38.7l7.8 5.4z"/>
				<path id="&lt;Path&gt;" class="s35" d="m194 20.2l7.2-5.1v38.8l-7.2 5z"/>
				<path id="&lt;Path&gt;" class="s36" d="m201.2 15.1l-7.2 5.1-7.8-5.4 7.2-5z"/>
			</g>
			<g id="&lt;Group&gt;">
				<path id="&lt;Path&gt;" class="s37" d="m209.6 16.2c0 8.5-6.9 15.4-15.4 15.4-8.4 0-15.3-6.9-15.3-15.4 0-8.5 6.9-15.3 15.3-15.3 8.5 0 15.4 6.8 15.4 15.3z"/>
				<path id="&lt;Path&gt;" class="s38" d="m209.3 16c0 8.2-6.7 14.8-14.9 14.8-8.2 0-14.8-6.6-14.8-14.8 0-8.2 6.6-14.9 14.8-14.9 8.2 0 14.9 6.7 14.9 14.9z"/>
				<path id="&lt;Path&gt;" class="s39" d="m209 15.7c0 7.9-6.5 14.3-14.4 14.3-7.9 0-14.3-6.4-14.3-14.3 0-7.9 6.4-14.3 14.3-14.3 7.9 0 14.4 6.4 14.4 14.3z"/>
				<path id="&lt;Path&gt;" class="s40" d="m208.6 15.5c0 7.6-6.2 13.8-13.8 13.8-7.6 0-13.8-6.2-13.8-13.8 0-7.7 6.2-13.9 13.8-13.9 7.6 0 13.8 6.2 13.8 13.9z"/>
				<path id="&lt;Path&gt;" class="s41" d="m208.3 15.2c0 7.3-5.9 13.3-13.3 13.3-7.3 0-13.3-6-13.3-13.3 0-7.3 6-13.3 13.3-13.3 7.4 0 13.3 6 13.3 13.3z"/>
				<path id="&lt;Path&gt;" class="s42" d="m208 14.9c0 7.1-5.7 12.8-12.8 12.8-7.1 0-12.8-5.7-12.8-12.8 0-7 5.7-12.7 12.8-12.7 7.1 0 12.8 5.7 12.8 12.7z"/>
				<path id="&lt;Path&gt;" class="s43" d="m207.7 14.7c0 6.8-5.5 12.2-12.3 12.2-6.8 0-12.3-5.4-12.3-12.2 0-6.8 5.5-12.3 12.3-12.3 6.8 0 12.3 5.5 12.3 12.3z"/>
				<path id="&lt;Path&gt;" class="s44" d="m207.3 14.4c0 6.5-5.2 11.8-11.7 11.8-6.5 0-11.8-5.3-11.8-11.8 0-6.5 5.3-11.7 11.8-11.7 6.5 0 11.7 5.2 11.7 11.7z"/>
				<path id="&lt;Path&gt;" class="s45" d="m207 14.2c0 6.2-5 11.2-11.2 11.2-6.2 0-11.3-5-11.3-11.2 0-6.2 5.1-11.3 11.3-11.3 6.2 0 11.2 5.1 11.2 11.3z"/>
				<path id="&lt;Path&gt;" class="s46" d="m206.7 13.9c0 5.9-4.8 10.7-10.7 10.7-6 0-10.7-4.8-10.7-10.7 0-5.9 4.7-10.7 10.7-10.7 5.9 0 10.7 4.8 10.7 10.7z"/>
				<path id="&lt;Path&gt;" class="s47" d="m206.3 13.6c0 5.7-4.5 10.2-10.1 10.2-5.7 0-10.2-4.5-10.2-10.2 0-5.6 4.5-10.2 10.2-10.2 5.6 0 10.1 4.6 10.1 10.2z"/>
				<path id="&lt;Path&gt;" class="s48" d="m206 13.4c0 5.3-4.3 9.6-9.7 9.6-5.3 0-9.6-4.3-9.6-9.6 0-5.4 4.3-9.7 9.6-9.7 5.4 0 9.7 4.3 9.7 9.7z"/>
				<path id="&lt;Path&gt;" class="s49" d="m205.7 13.1c0 5.1-4.1 9.2-9.2 9.2-5 0-9.1-4.1-9.1-9.2 0-5 4.1-9.1 9.1-9.1 5.1 0 9.2 4.1 9.2 9.1z"/>
				<path id="&lt;Path&gt;" class="s50" d="m205.4 12.9c0 4.7-3.9 8.6-8.7 8.6-4.7 0-8.6-3.9-8.6-8.6 0-4.8 3.9-8.7 8.6-8.7 4.8 0 8.7 3.9 8.7 8.7z"/>
				<path id="&lt;Path&gt;" class="s51" d="m205 12.6c0 4.5-3.6 8.1-8.1 8.1-4.5 0-8.1-3.6-8.1-8.1 0-4.5 3.6-8.1 8.1-8.1 4.5 0 8.1 3.6 8.1 8.1z"/>
				<path id="&lt;Path&gt;" class="s52" d="m204.7 12.3c0 4.2-3.4 7.6-7.6 7.6-4.2 0-7.6-3.4-7.6-7.6 0-4.2 3.4-7.6 7.6-7.6 4.2 0 7.6 3.4 7.6 7.6z"/>
				<path id="&lt;Path&gt;" class="s53" d="m204.4 12.1c0 3.9-3.2 7.1-7.1 7.1-3.9 0-7.1-3.2-7.1-7.1 0-3.9 3.2-7.1 7.1-7.1 3.9 0 7.1 3.2 7.1 7.1z"/>
				<path id="&lt;Path&gt;" class="s54" d="m204.1 11.8c0 3.6-3 6.6-6.6 6.6-3.6 0-6.6-3-6.6-6.6 0-3.6 3-6.5 6.6-6.5 3.6 0 6.6 2.9 6.6 6.5z"/>
				<path id="&lt;Path&gt;" class="s55" d="m203.7 11.6c0 3.3-2.7 6-6 6-3.4 0-6.1-2.7-6.1-6 0-3.4 2.7-6.1 6.1-6.1 3.3 0 6 2.7 6 6.1z"/>
				<path id="&lt;Path&gt;" class="s56" d="m203.4 11.3c0 3.1-2.5 5.5-5.5 5.5-3.1 0-5.6-2.4-5.6-5.5 0-3.1 2.5-5.5 5.6-5.5 3 0 5.5 2.4 5.5 5.5z"/>
				<path id="&lt;Path&gt;" class="s57" d="m203.1 11c0 2.8-2.3 5.1-5 5.1-2.8 0-5-2.3-5-5.1 0-2.7 2.2-5 5-5 2.7 0 5 2.3 5 5z"/>
				<path id="&lt;Path&gt;" class="s58" d="m202.7 10.8c0 2.5-2 4.5-4.4 4.5-2.5 0-4.5-2-4.5-4.5 0-2.5 2-4.5 4.5-4.5 2.4 0 4.4 2 4.4 4.5z"/>
			</g>
		</g>
	</g>
</svg>